# AST/ASF file generated using VICON BodyLanguage
# -----------------------------------------------
:version 1.10
:name VICON
:units
  mass 1.0
  length 0.45
  angle deg
:documentation
   .ast/.asf automatically generated from VICON data using
   VICON BodyBuilder and BodyLanguage model FoxedUp or BRILLIANT.MOD
:root
   order TX TY TZ RX RY RZ
   axis XYZ
   position 0 0 0  
   orientation 0 0 0 
:bonedata
  begin
     id 1 
     name lhipjoint
     direction 0.604623 -0.733026 0.311616 
     length 2.56391 
     axis 0 0 0  XYZ
  end
  begin
     id 2 
     name lfemur
     direction 0.34202 -0.939693 0  
     length 7.75596  
     axis 0 0 20  XYZ
    dof rx ry rz
    limits (-160.0 20.0)
           (-70.0 70.0)
           (-60.0 70.0)
  end
  begin
     id 3 
     name ltibia
     direction 0.34202 -0.939693 0   
     length 7.63697   
     axis 0 0 20   XYZ
    dof rx
    limits (-10.0 170.0)
  end
  begin
     id 4 
     name lfoot
     direction 0.048038 -0.131983 0.990087   
     length 1.94388   
     axis -90 7.62852e-016 20   XYZ
    dof rx rz
    limits (-45.0 90.0)
           (-70.0 20.0)
  end
  begin
     id 5 
     name ltoes
     direction 1.53565e-011 -4.21929e-011 1   
     length 0.984801   
     axis -90 7.62852e-016 20   XYZ
    dof rx
    limits (-90.0 20.0)
  end
  begin
     id 6 
     name rhipjoint
     direction -0.609162 -0.729836 0.31026   
     length 2.57511  
     axis 0 0 0  XYZ 
  end
  begin
     id 7 
     name rfemur
     direction -0.34202 -0.939693 0   
     length 7.60772   
     axis 0 0 -20   XYZ
    dof rx ry rz
    limits (-160.0 20.0)
           (-70.0 70.0)
           (-70.0 60.0)
  end
  begin
     id 8 
     name rtibia
     direction -0.34202 -0.939693 0   
     length 7.68497   
     axis 0 0 -20   XYZ
    dof rx
    limits (-10.0 170.0)
 end
 begin
     id 9 
     name rfoot
     direction -0.0969806 -0.266452 0.958957   
     length 2.01398  
     axis -90 -7.62852e-016 -20   XYZ
    dof rx rz
    limits (-45.0 90.0)
           (-20.0 70.0)
  end
  begin
     id 10 
     name rtoes
     direction -1.53552e-011 -4.21869e-011 1   
     length 1.00896   
     axis -90 -7.62852e-016 -20   XYZ
    dof rx
    limits (-90.0 20.0)
  end
  begin
     id 11 
     name lowerback
     direction 0.0305179 0.993923 -0.10576   
     length 2.09077   
     axis 0 0 0   XYZ
    dof rx ry rz
    limits (-20.0 45.0)
           (-30.0 30.0)
           (-30.0 30.0)
  end
  begin
     id 12 
     name upperback
     direction -0.0137909 0.999867 0.00873764   
     length 2.08918   
     axis 0 0 0   XYZ
    dof rx ry rz
    limits (-20.0 45.0)
           (-30.0 30.0)
           (-30.0 30.0)
  end
  begin
     id 13 
     name thorax
     direction -0.0278536 0.997917 0.0581839   
     length 2.11939   
     axis 0 0 0   XYZ
    dof rx ry rz
    limits (-20.0 45.0)
           (-30.0 30.0)
           (-30.0 30.0)
  end
  begin
     id 14 
     name lowerneck
     direction 0.0138689 0.999837 -0.0116016   
     length 1.74353   
     axis 0 0 0   XYZ
    dof rx ry rz
    limits (-20.0 45.0)
           (-30.0 30.0)
           (-30.0 30.0)
  end
  begin
     id 15 
     name upperneck
     direction -0.00992078 0.999667 0.0238149   
     length 1.71734   
     axis 0 0 0   XYZ
    dof rx ry rz
    limits (-20.0 45.0)
           (-30.0 30.0)
           (-30.0 30.0)
  end
  begin
     id 16
     name head
     direction -0.00530555 0.999941 0.00944937  
     length 1.78249  
     axis 0 0 0   XYZ
    dof rx ry rz
    limits (-20.0 45.0)
           (-30.0 30.0)
           (-30.0 30.0)
  end
  begin
     id 17 
     name lclavicle
     direction 0.929165 0.366864 0.0454227  
     length 3.65686  
     axis 0 0 0   XYZ
    dof ry rz
    limits (-20.0 10.0)
           (0.0 20.0)
  end
  begin
     id 18 
     name lhumerus
     direction 1 -4.4897e-011 3.05413e-018   
     length 5.15218   
     axis -180 -30 -90   XYZ
    dof rx ry rz
    limits (-60.0 90.0)
           (-90.0 90.0)
           (-90.0 90.0)
  end
  begin
     id 19
     name lradius
     direction 1 -4.48963e-011 5.40022e-027   
     length 3.49459   
     axis -180 -30 -90   XYZ
    dof rx
    limits (-10.0 170.0)
  end
  begin
     id 20
     name lwrist
     direction 1 -4.48966e-011 9.79369e-027   
     length 1.7473   
     axis -4.67603e-015 90 90   XYZ
    dof ry
    limits (-180.0 0.0)
 end
  begin
     id 21 
     name lhand
     direction 1 -4.48996e-011 1.9593e-026   
     length 0.512466   
     axis -1.24987e-014 90 90   XYZ
    dof rx rz
    limits (-90.0 90.0)
           (-45.0 45.0)
  end
  begin
     id 22 
     name lfingers
     direction 1 -4.48931e-011 3.91616e-026   
     length 0.413163   
     axis -2.49979e-014 90 90   XYZ
    dof rx
    limits (0.0 90.0)
  end
  begin
     id 23
     name lthumb
     direction 0.707107 -6.34959e-011 0.707107   
     length 0.593222   
     axis -90 45 5.69224e-014   XYZ
    dof rx rz
    limits (-45.0 45.0)
           (-45.0 45.0)
  end
  begin
     id 24 
     name rclavicle
     direction -0.951469 0.307727 0.00346571   
     length 3.42864  
     axis 0 0 0   XYZ 
    dof ry rz
    limits (-10.0 20.0)
           (-20.0 0.0)
  end
  begin
     id 25 
     name rhumerus
     direction -1 -4.48967e-011 2.58643e-027  
     length 5.44344   
     axis -180 30 90   XYZ
    dof rx ry rz
    limits (-90.0 60.0)
           (-90.0 90.0)
           (-90.0 90.0)
  end
  begin
     id 26 
     name rradius
     direction -1 -4.48973e-011 4.26485e-028   
     length 3.58403   
     axis -180 30 90   XYZ
    dof rx
    limits (-10.0 170.0)
  end
  begin
     id 27 
     name rwrist
     direction -1 -4.48962e-011 9.79331e-027   
     length 1.79202   
     axis -4.67603e-015 -90 -90   XYZ
    dof ry
    limits (-180.0 0.0)
  end
  begin
     id 28
     name rhand
     direction -1 -4.48975e-011 1.95891e-026   
     length 0.34249   
     axis -1.24987e-014 -90 -90   XYZ
    dof rx rz
    limits (-90.0 90.0)
           (-45.0 45.0)
  end
  begin
     id 29
     name rfingers
     direction -1 -4.48893e-011 3.9147e-026   
     length 0.276124   
     axis -2.49979e-014 -90 -90   XYZ
    dof rx
    limits (0.0 90.0)
  end
  begin
     id 30
     name rthumb
     direction -0.707107 -6.34898e-011 0.707107   
     length 0.39646   
     axis -90 -45 -5.69224e-014   XYZ
    dof rx rz
    limits (-45.0 45.0)
           (-45.0 45.0)
  end
:hierarchy
  begin
    root lhipjoint rhipjoint lowerback
    lhipjoint lfemur
    lfemur ltibia
    ltibia lfoot
    lfoot ltoes
    rhipjoint rfemur
    rfemur rtibia
    rtibia rfoot
    rfoot rtoes
    lowerback upperback
    upperback thorax
    thorax lowerneck lclavicle rclavicle
    lowerneck upperneck
    upperneck head
    lclavicle lhumerus
    lhumerus lradius
    lradius lwrist
    lwrist lhand lthumb
    lhand lfingers
    rclavicle rhumerus
    rhumerus rradius
    rradius rwrist
    rwrist rhand rthumb
    rhand rfingers
  end

#!OML:ASF H:\charlestonDancing\Project 1\Capture day 1\Session 1\femaleDancer.ASF
:FULLY-SPECIFIED
:DEGREES
155
root -2.87833 17.5923 1.10699 -176.742 -50.6109 -538.104
lowerback 18.649 -1.89176 1.12889
upperback 1.50241 -2.25208 2.43863
thorax -8.77207 -1.16184 2.59758
lowerneck 5.49381 -15.5025 -11.2842
upperneck -3.08687 -21.3647 16.8311
head 1.26583 -10.9622 6.34209
rclavicle -2.22639e-014 -2.18663e-014
rhumerus 10.8074 18.4512 -35.2543
rradius 81.2912
rwrist -15.9907
rhand -12.7775 -28.4276
rfingers 7.12502
rthumb 13.3077 -57.9827
lclavicle -2.22639e-014 -2.18663e-014
lhumerus -10.727 -7.73462 54.5327
lradius 83.6024
lwrist 29.31
lhand -10.2846 27.5277
lfingers 7.12502
lthumb 15.7096 56.91
rfemur -33.0919 -0.0160116 15.1243
rtibia 62.306
rfoot -13.3191 -11.2123
rtoes -15.7435
lfemur -21.1648 1.50925 -22.6546
ltibia 42.6525
lfoot -21.8724 0.308481
ltoes -30.8947
156
root -2.87191 17.5503 1.28744 -175.855 -46.1631 -539.617
lowerback 18.2733 -1.93148 0.277631
upperback 1.25868 -2.48409 2.20819
thorax -8.79885 -1.23534 2.87966
lowerneck 6.14072 -15.1988 -11.6562
upperneck -3.4557 -21.0011 16.8489
head 1.04513 -10.8114 6.50263
rclavicle -2.85256e-014 -3.97569e-015
rhumerus 9.82813 16.9809 -34.9731
rradius 80.7529
rwrist -16.0199
rhand -13.2379 -27.7389
rfingers 7.12502
rthumb 12.8639 -57.3225
lclavicle -2.85256e-014 -3.97569e-015
lhumerus -12.4486 -6.53586 54.1498
lradius 84.4857
lwrist 29.2437
lhand -10.0817 26.6788
lfingers 7.12502
lthumb 15.9049 56.0456
rfemur -31.6501 -0.88296 14.2022
rtibia 65.3846
rfoot -13.2621 -10.356
rtoes -20.1529
lfemur -20.9368 3.29497 -24.4041
ltibia 42.5554
lfoot -23.2056 2.57438
ltoes -29.7022
157
root -2.88139 17.5 1.46128 -175.479 -41.6555 -540.427
lowerback 17.8146 -2.00026 0.131164
upperback 0.996181 -2.60893 1.99182
thorax -8.83047 -1.28484 2.74523
lowerneck 6.06079 -15.0668 -11.6604
upperneck -3.32576 -20.8287 16.4275
head 1.02345 -10.7088 6.38761
rclavicle -3.18055e-015 -4.49253e-014
rhumerus 8.67934 15.354 -34.7403
rradius 80.4431
rwrist -15.8933
rhand -12.5 -28.8218
rfingers 7.12502
rthumb 13.5751 -58.3592
lclavicle -3.18055e-015 -4.49253e-014
lhumerus -14.1442 -5.57634 53.8294
lradius 85.3126
lwrist 29.0095
lhand -10.222 26.1073
lfingers 7.12502
lthumb 15.7699 55.4849
rfemur -29.9827 -1.63069 13.2874
rtibia 67.84
rfoot -13.9943 -8.8896
rtoes -12.0772
lfemur -20.9888 5.19663 -25.7278
ltibia 42.7806
lfoot -24.5987 4.40582
ltoes -25.4372
158
root -2.90257 17.4558 1.62353 -175.683 -36.9185 -540.461
lowerback 17.387 -1.97356 0.80777
upperback 0.832558 -2.45479 1.77596
thorax -8.81582 -1.2395 2.07481
lowerneck 6.20099 -15.0589 -11.3517
upperneck -3.44587 -20.8004 16.1201
head 0.894925 -10.6989 6.2861
rclavicle 2.74323e-014 -3.37934e-014
rhumerus 7.24182 13.2387 -34.7599
rradius 79.9788
rwrist -16.025
rhand -12.9807 -28.4832
rfingers 7.12502
rthumb 13.1118 -58.051
lclavicle 2.74323e-014 -3.37934e-014
lhumerus -15.611 -4.90752 53.4948
lradius 86.1036
lwrist 28.7413
lhand -10.5565 26.1592
lfingers 7.12502
lthumb 15.4477 55.5619
rfemur -28.5964 -2.50205 12.9633
rtibia 69.6185
rfoot -13.2298 -9.39194
rtoes -14.6075
lfemur -21.1262 7.43865 -26.4018
ltibia 43.2135
lfoot -26.113 6.27173
ltoes -22.7838
